# xmcd
#
# Track frame offsets:
#	150
#	4097
#	23912
#	44475
#	69627
#	90512
#	116562
#	138530
#	161887
#	163557
#	182512
#	201752
#	225545
#	228287
#	246387
#
# Disc length: 3290 seconds
#
# Revision: 1
# Processed by: cddbd v1.5.1PL0 Copyright (c) Steve Scherf et al.
# Submitted via: CDex 1.50Beta5
#
DISCID=c50cd80f
DTITLE=LUV 2 SHY - LUV 2 SHY I
DYEAR=1997
DGENRE=Rock
TTITLE0=Intro.
TTITLE1=What’s Your Name?×××
TTITLE2=Phantom Of Love
TTITLE3=花椿
TTITLE4=Lovergirl In Summer
TTITLE5=I’m Female,UR Male.
TTITLE6=Nobody Hurts Me
TTITLE7=風に誘われて
TTITLE8=Date
TTITLE9=Baby Cool!
TTITLE10=MINT MIND
TTITLE11=My Sweet Home Town
TTITLE12=Instant M.
TTITLE13=Love,too shy
TTITLE14=New Soul
EXTD=
EXTT0=
EXTT1=
EXTT2=
EXTT3=
EXTT4=
EXTT5=
EXTT6=
EXTT7=
EXTT8=
EXTT9=
EXTT10=
EXTT11=
EXTT12=
EXTT13=
EXTT14=
PLAYORDER=
